<svg width="24" height="22" viewBox="0 0 24 22" fill="none" xmlns="http://www.w3.org/2000/svg">
<g clip-path="url(#clip0_1624_1025)">
<path d="M4.25007 17.0991H6.8855V15.422H4.27091C3.22925 15.422 2.65633 14.8595 2.65633 13.7762V3.42203C2.65633 2.3387 3.22925 1.77621 4.27091 1.77621H14.6771C15.7084 1.77621 16.2918 2.3387 16.2918 3.42203V5.70329H17.9688V3.32829C17.9688 1.18245 16.8751 0.0991211 14.7084 0.0991211H4.25007C2.06258 0.0991211 0.979248 1.18245 0.979248 3.32829V13.87C0.979248 16.0158 2.06258 17.0991 4.25007 17.0991ZM9.30217 21.922H19.7604C21.9271 21.922 23.0208 20.8387 23.0208 18.6928V8.15121C23.0208 6.00537 21.9271 4.92203 19.7604 4.92203H9.30217C7.11466 4.92203 6.03133 5.99495 6.03133 8.15121V18.6928C6.03133 20.8387 7.11466 21.922 9.30217 21.922ZM9.323 20.245C8.29176 20.245 7.70842 19.6824 7.70842 18.5991V8.24496C7.70842 7.16162 8.29176 6.59911 9.323 6.59911H19.7292C20.7604 6.59911 21.3438 7.16162 21.3438 8.24496V18.5991C21.3438 19.6824 20.7604 20.245 19.7292 20.245H9.323ZM12.0313 17.9428L14.5418 16.0991L17.0522 17.9428C17.5626 18.3179 18.1043 17.922 17.9063 17.3283L16.9063 14.3595L19.448 12.547C19.9167 12.2033 19.771 11.5262 19.1251 11.5366L16.0104 11.5575L15.0522 8.57829C14.8751 7.99495 14.2084 7.99495 14.0209 8.57829L13.073 11.5575L9.95842 11.5366C9.31258 11.5262 9.15633 12.2033 9.6355 12.547L12.1667 14.3595L11.1772 17.3283C10.9792 17.922 11.5209 18.3179 12.0313 17.9428Z" fill="#79767D"/>
</g>
<defs>
<clipPath id="clip0_1624_1025">
<rect width="22.0416" height="21.8437" fill="white" transform="translate(0.979248 0.078125)"/>
</clipPath>
</defs>
</svg>
