<svg width="30" height="24" viewBox="0 0 30 24" fill="none" xmlns="http://www.w3.org/2000/svg">
<g clip-path="url(#clip0_1624_1017)">
<path d="M7.073 22.7657C7.62508 22.7657 8.00008 22.5783 8.66675 21.9949L13.0417 18.0783L11.8334 16.9116L7.50008 20.9116V17.9324C7.50008 17.3387 7.14591 17.0679 6.68759 17.0679H4.65633C2.81257 17.0679 1.71883 16.0575 1.71883 14.12V4.63038C1.71883 2.69287 2.81257 1.67203 4.65633 1.67203H19.3543C21.198 1.67203 22.2917 2.69287 22.2917 4.63038V6.0887H23.9688V4.56787C23.9688 1.74495 22.2917 0.0991211 19.4584 0.0991211H4.55216C1.83341 0.0991211 0.041748 1.74495 0.041748 4.56787V14.1616C0.041748 16.9949 1.83341 18.6304 4.55216 18.6304H5.92716V21.4845C5.92716 22.2867 6.33341 22.7657 7.073 22.7657ZM24.0417 23.9324C24.7605 23.9324 25.1668 23.422 25.1668 22.6304V20.1304H25.6043C28.2188 20.1304 29.9584 18.5471 29.9584 15.8283V9.67203C29.9584 6.94287 28.2188 5.35954 25.6043 5.35954H15.4896C12.7605 5.35954 11.1459 6.94287 11.1459 9.67203V15.8283C11.1459 18.5575 12.7605 20.1304 15.4896 20.1304H19.0833L22.5625 23.1095C23.198 23.6512 23.5417 23.9324 24.0417 23.9324ZM23.6043 22.0471L20.2605 19.0471C19.8439 18.6824 19.5939 18.5575 19.0209 18.5575H15.5939C13.8543 18.5575 12.8126 17.62 12.8126 15.7761L12.823 9.72412C12.823 7.89079 13.8543 6.93246 15.5939 6.93246H25.5105C27.2396 6.93246 28.2813 7.89079 28.2813 9.72412V15.7761C28.2813 17.62 27.2396 18.5575 25.5105 18.5575H24.4063C23.9584 18.5575 23.6043 18.8283 23.6043 19.4116V22.0471Z" fill="#79767D"/>
</g>
<defs>
<clipPath id="clip0_1624_1017">
<rect width="29.9167" height="23.8645" fill="white" transform="translate(0.041748 0.0678711)"/>
</clipPath>
</defs>
</svg>
