<svg width="24" height="20" viewBox="0 0 24 20" fill="none" xmlns="http://www.w3.org/2000/svg">
<g clip-path="url(#clip0_1624_1033)">
<path d="M3.4427 19.4634H20.8697C22.7344 19.4634 23.8281 18.3801 23.8281 16.2342V5.53629C23.8281 3.39047 22.724 2.30713 20.5573 2.30713H10.5573C9.84895 2.30713 9.42187 2.14047 8.90105 1.69255L8.26562 1.17171C7.57813 0.588379 7.04687 0.400879 6.01562 0.400879H3.04687C1.22396 0.400879 0.171875 1.44255 0.171875 3.53629V16.2342C0.171875 18.3905 1.26562 19.4634 3.4427 19.4634ZM3.46354 17.7863C2.42187 17.7863 1.84895 17.2342 1.84895 16.1509V3.63005C1.84895 2.5988 2.39062 2.06755 3.39062 2.06755H5.58854C6.27603 2.06755 6.6927 2.24463 7.22395 2.69255L7.85937 3.2238C8.53646 3.78629 9.08854 3.98421 10.1198 3.98421H20.526C21.5573 3.98421 22.1511 4.54672 22.1511 5.63005V16.1613C22.1511 17.2342 21.5573 17.7863 20.526 17.7863H3.46354ZM1.19271 7.79672H22.7969V6.2238H1.19271V7.79672Z" fill="#79767D"/>
</g>
<defs>
<clipPath id="clip0_1624_1033">
<rect width="23.6563" height="19.1979" fill="white" transform="translate(0.171875 0.400879)"/>
</clipPath>
</defs>
</svg>
