<svg width="26" height="18" viewBox="0 0 26 18" fill="none" xmlns="http://www.w3.org/2000/svg">
<g clip-path="url(#clip0_1624_1009)">
<path d="M5.43758 14.2552H7.98967C8.60424 14.2552 9.0105 13.8386 9.0105 13.2552V11.3281C9.0105 10.7344 8.60424 10.3281 7.98967 10.3281H5.43758C4.82301 10.3281 4.41675 10.7344 4.41675 11.3281V13.2552C4.41675 13.8386 4.82301 14.2552 5.43758 14.2552ZM1.60425 6.61979H24.4064V4.25521H1.60425V6.61979ZM4.03132 17.9011H21.9688C24.1564 17.9011 25.2397 16.8282 25.2397 14.6823V3.33854C25.2397 1.19271 24.1564 0.109375 21.9688 0.109375H4.03132C1.85425 0.109375 0.760498 1.19271 0.760498 3.33854V14.6823C0.760498 16.8282 1.85425 17.9011 4.03132 17.9011ZM4.05216 16.224C3.0105 16.224 2.43758 15.6719 2.43758 14.5886V3.43229C2.43758 2.34896 3.0105 1.78645 4.05216 1.78645H21.948C22.9688 1.78645 23.5626 2.34896 23.5626 3.43229V14.5886C23.5626 15.6719 22.9688 16.224 21.948 16.224H4.05216Z" fill="#79767D"/>
</g>
<defs>
<clipPath id="clip0_1624_1009">
<rect width="24.4792" height="17.8021" fill="white" transform="translate(0.760498 0.0991211)"/>
</clipPath>
</defs>
</svg>
