<svg width="220" height="181" viewBox="0 0 220 181" fill="none" xmlns="http://www.w3.org/2000/svg">
    <g filter="url(#filter0_dd_1624_1039)">
        <rect x="80" y="54" width="60" height="60" rx="30" fill="url(#paint0_linear_1624_1039)" />
        <g clip-path="url(#clip0_1624_1039)">
            <path
                d="M112.336 101.748C112.776 101.748 113.098 101.426 113.182 100.969C114.384 91.7101 115.688 90.2881 124.862 89.2726C125.336 89.2219 125.658 88.8833 125.658 88.4263C125.658 87.9863 125.336 87.6476 124.862 87.5969C115.688 86.5812 114.384 85.1594 113.182 75.8833C113.098 75.4263 112.776 75.1216 112.336 75.1216C111.896 75.1216 111.574 75.4263 111.507 75.8833C110.305 85.1594 108.984 86.5812 99.8269 87.5969C99.336 87.6476 99.0144 87.9863 99.0144 88.4263C99.0144 88.8833 99.336 89.2219 99.8269 89.2726C108.968 90.4745 110.237 91.7101 111.507 100.969C111.574 101.426 111.896 101.748 112.336 101.748ZM100.859 83.0265C101.181 83.0265 101.401 82.8065 101.435 82.5018C102.044 77.9823 102.197 77.9823 106.869 77.0851C107.156 77.0343 107.376 76.8312 107.376 76.5096C107.376 76.2049 107.156 75.9849 106.869 75.951C102.197 75.2909 102.027 75.1385 101.435 70.5513C101.401 70.2297 101.181 70.0096 100.859 70.0096C100.555 70.0096 100.335 70.2297 100.284 70.5682C99.7423 75.0877 99.4884 75.0708 94.8503 75.951C94.5626 76.0018 94.3425 76.2049 94.3425 76.5096C94.3425 76.8481 94.5626 77.0343 94.9181 77.0851C99.5222 77.8299 99.7423 77.9484 100.284 82.4679C100.335 82.8065 100.555 83.0265 100.859 83.0265ZM109.052 71.3807C109.272 71.3807 109.391 71.2453 109.425 71.0422C109.932 68.3 109.882 68.1645 112.827 67.6398C113.03 67.589 113.165 67.4705 113.165 67.2505C113.165 67.0474 113.03 66.912 112.827 66.8781C109.882 66.3534 109.932 66.2179 109.425 63.4757C109.391 63.2726 109.272 63.1372 109.052 63.1372C108.832 63.1372 108.714 63.2726 108.68 63.4757C108.172 66.2179 108.223 66.3534 105.277 66.8781C105.057 66.912 104.939 67.0474 104.939 67.2505C104.939 67.4705 105.057 67.589 105.277 67.6398C108.223 68.1645 108.172 68.3 108.68 71.0422C108.714 71.2453 108.832 71.3807 109.052 71.3807Z"
                fill="white" />
        </g>
    </g>
    <defs>
        <filter id="filter0_dd_1624_1039" x="0" y="0" width="220" height="220" filterUnits="userSpaceOnUse"
            color-interpolation-filters="sRGB">
            <feFlood flood-opacity="0" result="BackgroundImageFix" />
            <feColorMatrix in="SourceAlpha" type="matrix" values="0 0 0 0 0 0 0 0 0 0 0 0 0 0 0 0 0 0 127 0"
                result="hardAlpha" />
            <feOffset dy="26" />
            <feGaussianBlur stdDeviation="40" />
            <feColorMatrix type="matrix" values="0 0 0 0 0 0 0 0 0 0 0 0 0 0 0 0 0 0 0.2 0" />
            <feBlend mode="normal" in2="BackgroundImageFix" result="effect1_dropShadow_1624_1039" />
            <feColorMatrix in="SourceAlpha" type="matrix" values="0 0 0 0 0 0 0 0 0 0 0 0 0 0 0 0 0 0 127 0"
                result="hardAlpha" />
            <feOffset />
            <feGaussianBlur stdDeviation="0.5" />
            <feColorMatrix type="matrix" values="0 0 0 0 0 0 0 0 0 0 0 0 0 0 0 0 0 0 0.2 0" />
            <feBlend mode="normal" in2="effect1_dropShadow_1624_1039" result="effect2_dropShadow_1624_1039" />
            <feBlend mode="normal" in="SourceGraphic" in2="effect2_dropShadow_1624_1039" result="shape" />
        </filter>
        <linearGradient id="paint0_linear_1624_1039" x1="110" y1="54" x2="110" y2="114" gradientUnits="userSpaceOnUse">
            <stop stop-color="#FB4145" />
            <stop offset="1" stop-color="#B02E30" />
        </linearGradient>
        <clipPath id="clip0_1624_1039">
            <rect width="31.3151" height="41.7252" fill="white" transform="translate(94.3425 63.1372)" />
        </clipPath>
    </defs>
</svg>