<svg width="16" height="14" viewBox="0 0 16 14" fill="none" xmlns="http://www.w3.org/2000/svg">
    <g clip-path="url(#clip0_1624_991)">
        <path
            d="M8.38442 3.18147C8.09796 3.18147 7.86359 3.40934 7.86359 3.6958V7.32862C7.86359 7.47836 7.90916 7.60856 8.01984 7.75179L9.62788 9.87421C9.8428 10.1541 10.1422 10.1997 10.4091 10.0175C10.65 9.84812 10.6695 9.54212 10.4743 9.27521L8.30629 6.35205L8.89874 8.17497V3.6958C8.89874 3.40934 8.67088 3.18147 8.38442 3.18147ZM8.63182 13.6372C12.2581 13.6372 15.2725 10.6229 15.2725 6.99658C15.2725 3.36377 12.2581 0.355957 8.63182 0.355957C4.999 0.355957 1.99119 3.35726 1.99119 6.99007H3.09796C3.09796 3.91716 5.5589 1.46924 8.63182 1.46924C11.7047 1.46924 14.1657 3.92367 14.1657 6.99658C14.1657 10.0695 11.7047 12.5435 8.63182 12.5305C6.77635 12.524 5.14874 11.6255 4.15265 10.2388C3.95083 9.97187 3.64484 9.88721 3.3714 10.05C3.11099 10.2127 3.03937 10.5708 3.26073 10.8573C4.4977 12.5175 6.43781 13.6372 8.63182 13.6372ZM1.19041 5.74007C0.721663 5.74007 0.604476 6.05908 0.858381 6.42367L2.31671 8.49397C2.53156 8.79346 2.84406 8.78696 3.05239 8.49397L4.51073 6.41716C4.75812 6.05908 4.64094 5.74007 4.17869 5.74007H1.19041Z"
            fill="#FB4145" />
    </g>
    <defs>
        <clipPath id="clip0_1624_991">
            <rect width="14.5452" height="13.2878" fill="white" transform="translate(0.727295 0.355957)" />
        </clipPath>
    </defs>
</svg>